<mxfile host="app.diagrams.net" agent="Mozilla/5.0 (Windows NT 10.0; Win64; x64; rv:132.0) Gecko/20100101 Firefox/132.0" version="24.8.6">
  <diagram name="Page-1" id="gdHff9vPdP-gqgaTmluo">
    <mxGraphModel dx="2893" dy="19" grid="1" gridSize="10" guides="1" tooltips="1" connect="1" arrows="1" fold="1" page="1" pageScale="1" pageWidth="850" pageHeight="1100" math="0" shadow="0">
      <root>
        <mxCell id="0" />
        <mxCell id="1" parent="0" />
        <mxCell id="GlIA1xJzYTSHRqPbz7Dy-1" value="Local_Store" style="swimlane;fontStyle=1;align=center;verticalAlign=top;childLayout=stackLayout;horizontal=1;startSize=26;horizontalStack=0;resizeParent=1;resizeParentMax=0;resizeLast=0;collapsible=1;marginBottom=0;whiteSpace=wrap;html=1;" vertex="1" parent="1">
          <mxGeometry x="-255" y="1810" width="170" height="178" as="geometry" />
        </mxCell>
        <mxCell id="GlIA1xJzYTSHRqPbz7Dy-2" value="- storedSymbols: List&amp;lt;String&amp;gt;" style="text;strokeColor=none;fillColor=none;align=left;verticalAlign=top;spacingLeft=4;spacingRight=4;overflow=hidden;rotatable=0;points=[[0,0.5],[1,0.5]];portConstraint=eastwest;whiteSpace=wrap;html=1;" vertex="1" parent="GlIA1xJzYTSHRqPbz7Dy-1">
          <mxGeometry y="26" width="170" height="84" as="geometry" />
        </mxCell>
        <mxCell id="GlIA1xJzYTSHRqPbz7Dy-3" value="" style="line;strokeWidth=1;fillColor=none;align=left;verticalAlign=middle;spacingTop=-1;spacingLeft=3;spacingRight=3;rotatable=0;labelPosition=right;points=[];portConstraint=eastwest;strokeColor=inherit;" vertex="1" parent="GlIA1xJzYTSHRqPbz7Dy-1">
          <mxGeometry y="110" width="170" height="8" as="geometry" />
        </mxCell>
        <mxCell id="GlIA1xJzYTSHRqPbz7Dy-4" value="&lt;div&gt;permissions_test()&lt;/div&gt;&lt;div&gt;store_sym(String[])&lt;/div&gt;&lt;div&gt;retrieve_sym()&lt;br&gt;&lt;/div&gt;" style="text;strokeColor=none;fillColor=none;align=left;verticalAlign=top;spacingLeft=4;spacingRight=4;overflow=hidden;rotatable=0;points=[[0,0.5],[1,0.5]];portConstraint=eastwest;whiteSpace=wrap;html=1;" vertex="1" parent="GlIA1xJzYTSHRqPbz7Dy-1">
          <mxGeometry y="118" width="170" height="60" as="geometry" />
        </mxCell>
        <mxCell id="GlIA1xJzYTSHRqPbz7Dy-9" value="&lt;div&gt;Home_Page&lt;/div&gt;" style="swimlane;fontStyle=1;align=center;verticalAlign=top;childLayout=stackLayout;horizontal=1;startSize=26;horizontalStack=0;resizeParent=1;resizeParentMax=0;resizeLast=0;collapsible=1;marginBottom=0;whiteSpace=wrap;html=1;" vertex="1" parent="1">
          <mxGeometry x="-803" y="1820" width="210" height="190" as="geometry" />
        </mxCell>
        <mxCell id="GlIA1xJzYTSHRqPbz7Dy-10" value="- stockList: List&amp;lt;Stock&amp;gt;" style="text;strokeColor=none;fillColor=none;align=left;verticalAlign=top;spacingLeft=4;spacingRight=4;overflow=hidden;rotatable=0;points=[[0,0.5],[1,0.5]];portConstraint=eastwest;whiteSpace=wrap;html=1;" vertex="1" parent="GlIA1xJzYTSHRqPbz7Dy-9">
          <mxGeometry y="26" width="210" height="84" as="geometry" />
        </mxCell>
        <mxCell id="GlIA1xJzYTSHRqPbz7Dy-11" value="" style="line;strokeWidth=1;fillColor=none;align=left;verticalAlign=middle;spacingTop=-1;spacingLeft=3;spacingRight=3;rotatable=0;labelPosition=right;points=[];portConstraint=eastwest;strokeColor=inherit;" vertex="1" parent="GlIA1xJzYTSHRqPbz7Dy-9">
          <mxGeometry y="110" width="210" height="8" as="geometry" />
        </mxCell>
        <mxCell id="GlIA1xJzYTSHRqPbz7Dy-12" value="&lt;div&gt;+ displayStockInfo()&lt;/div&gt;&lt;div&gt;+ addStockForm()&lt;/div&gt;&lt;div&gt;+ deleteStockForm()&lt;br&gt;&lt;/div&gt;" style="text;strokeColor=none;fillColor=none;align=left;verticalAlign=top;spacingLeft=4;spacingRight=4;overflow=hidden;rotatable=0;points=[[0,0.5],[1,0.5]];portConstraint=eastwest;whiteSpace=wrap;html=1;" vertex="1" parent="GlIA1xJzYTSHRqPbz7Dy-9">
          <mxGeometry y="118" width="210" height="72" as="geometry" />
        </mxCell>
        <mxCell id="GlIA1xJzYTSHRqPbz7Dy-13" value="Home_Controller" style="swimlane;fontStyle=1;align=center;verticalAlign=top;childLayout=stackLayout;horizontal=1;startSize=26;horizontalStack=0;resizeParent=1;resizeParentMax=0;resizeLast=0;collapsible=1;marginBottom=0;whiteSpace=wrap;html=1;" vertex="1" parent="1">
          <mxGeometry x="-810" y="1522" width="190" height="200" as="geometry" />
        </mxCell>
        <mxCell id="GlIA1xJzYTSHRqPbz7Dy-14" value="&lt;div&gt;- homePage: Home_Page&lt;/div&gt;&lt;div&gt;- dataController: Data_Controller&lt;br&gt;&lt;/div&gt;" style="text;strokeColor=none;fillColor=none;align=left;verticalAlign=top;spacingLeft=4;spacingRight=4;overflow=hidden;rotatable=0;points=[[0,0.5],[1,0.5]];portConstraint=eastwest;whiteSpace=wrap;html=1;" vertex="1" parent="GlIA1xJzYTSHRqPbz7Dy-13">
          <mxGeometry y="26" width="190" height="84" as="geometry" />
        </mxCell>
        <mxCell id="GlIA1xJzYTSHRqPbz7Dy-15" value="" style="line;strokeWidth=1;fillColor=none;align=left;verticalAlign=middle;spacingTop=-1;spacingLeft=3;spacingRight=3;rotatable=0;labelPosition=right;points=[];portConstraint=eastwest;strokeColor=inherit;" vertex="1" parent="GlIA1xJzYTSHRqPbz7Dy-13">
          <mxGeometry y="110" width="190" height="8" as="geometry" />
        </mxCell>
        <mxCell id="GlIA1xJzYTSHRqPbz7Dy-16" value="&lt;div&gt;+ init()&lt;/div&gt;&lt;div&gt;+ addStock()&lt;/div&gt;&lt;div&gt;+ removeStock()&lt;br&gt;&lt;/div&gt;&lt;div&gt;+ fillRow()&lt;/div&gt;&lt;div&gt;&lt;br&gt;&lt;/div&gt;" style="text;strokeColor=none;fillColor=none;align=left;verticalAlign=top;spacingLeft=4;spacingRight=4;overflow=hidden;rotatable=0;points=[[0,0.5],[1,0.5]];portConstraint=eastwest;whiteSpace=wrap;html=1;" vertex="1" parent="GlIA1xJzYTSHRqPbz7Dy-13">
          <mxGeometry y="118" width="190" height="82" as="geometry" />
        </mxCell>
        <mxCell id="GlIA1xJzYTSHRqPbz7Dy-21" value="Data_Controller" style="swimlane;fontStyle=1;align=center;verticalAlign=top;childLayout=stackLayout;horizontal=1;startSize=26;horizontalStack=0;resizeParent=1;resizeParentMax=0;resizeLast=0;collapsible=1;marginBottom=0;whiteSpace=wrap;html=1;" vertex="1" parent="1">
          <mxGeometry x="-533" y="1522" width="170" height="200" as="geometry" />
        </mxCell>
        <mxCell id="GlIA1xJzYTSHRqPbz7Dy-22" value="- localStore: Local_Store&lt;div&gt;- interface: AV_Interface&lt;br&gt;&lt;/div&gt;" style="text;strokeColor=none;fillColor=none;align=left;verticalAlign=top;spacingLeft=4;spacingRight=4;overflow=hidden;rotatable=0;points=[[0,0.5],[1,0.5]];portConstraint=eastwest;whiteSpace=wrap;html=1;" vertex="1" parent="GlIA1xJzYTSHRqPbz7Dy-21">
          <mxGeometry y="26" width="170" height="84" as="geometry" />
        </mxCell>
        <mxCell id="GlIA1xJzYTSHRqPbz7Dy-23" value="" style="line;strokeWidth=1;fillColor=none;align=left;verticalAlign=middle;spacingTop=-1;spacingLeft=3;spacingRight=3;rotatable=0;labelPosition=right;points=[];portConstraint=eastwest;strokeColor=inherit;" vertex="1" parent="GlIA1xJzYTSHRqPbz7Dy-21">
          <mxGeometry y="110" width="170" height="8" as="geometry" />
        </mxCell>
        <mxCell id="GlIA1xJzYTSHRqPbz7Dy-24" value="&lt;div&gt;+ fetchStockData()&lt;/div&gt;&lt;div&gt;+ validateSymbol()&lt;/div&gt;&lt;div&gt;+ addStock()&lt;/div&gt;&lt;div&gt;+ removeStock()&lt;/div&gt;&lt;div&gt;+ updateSym()&lt;br&gt;&lt;/div&gt;" style="text;strokeColor=none;fillColor=none;align=left;verticalAlign=top;spacingLeft=4;spacingRight=4;overflow=hidden;rotatable=0;points=[[0,0.5],[1,0.5]];portConstraint=eastwest;whiteSpace=wrap;html=1;" vertex="1" parent="GlIA1xJzYTSHRqPbz7Dy-21">
          <mxGeometry y="118" width="170" height="82" as="geometry" />
        </mxCell>
        <mxCell id="GlIA1xJzYTSHRqPbz7Dy-25" value="AV_Interface" style="swimlane;fontStyle=1;align=center;verticalAlign=top;childLayout=stackLayout;horizontal=1;startSize=26;horizontalStack=0;resizeParent=1;resizeParentMax=0;resizeLast=0;collapsible=1;marginBottom=0;whiteSpace=wrap;html=1;" vertex="1" parent="1">
          <mxGeometry x="-255" y="1522" width="200" height="180" as="geometry" />
        </mxCell>
        <mxCell id="GlIA1xJzYTSHRqPbz7Dy-26" value="&lt;div&gt;-apiKey: String&lt;/div&gt;&lt;div&gt;&lt;br&gt;&lt;/div&gt;" style="text;strokeColor=none;fillColor=none;align=left;verticalAlign=top;spacingLeft=4;spacingRight=4;overflow=hidden;rotatable=0;points=[[0,0.5],[1,0.5]];portConstraint=eastwest;whiteSpace=wrap;html=1;" vertex="1" parent="GlIA1xJzYTSHRqPbz7Dy-25">
          <mxGeometry y="26" width="200" height="84" as="geometry" />
        </mxCell>
        <mxCell id="GlIA1xJzYTSHRqPbz7Dy-27" value="" style="line;strokeWidth=1;fillColor=none;align=left;verticalAlign=middle;spacingTop=-1;spacingLeft=3;spacingRight=3;rotatable=0;labelPosition=right;points=[];portConstraint=eastwest;strokeColor=inherit;" vertex="1" parent="GlIA1xJzYTSHRqPbz7Dy-25">
          <mxGeometry y="110" width="200" height="8" as="geometry" />
        </mxCell>
        <mxCell id="GlIA1xJzYTSHRqPbz7Dy-28" value="+ queryRealTime(String[])&lt;div&gt;+ queryDaily(String)&lt;/div&gt;&lt;div&gt;+ queryMonthly(String[])&lt;br&gt;&lt;/div&gt;" style="text;strokeColor=none;fillColor=none;align=left;verticalAlign=top;spacingLeft=4;spacingRight=4;overflow=hidden;rotatable=0;points=[[0,0.5],[1,0.5]];portConstraint=eastwest;whiteSpace=wrap;html=1;" vertex="1" parent="GlIA1xJzYTSHRqPbz7Dy-25">
          <mxGeometry y="118" width="200" height="62" as="geometry" />
        </mxCell>
        <mxCell id="GlIA1xJzYTSHRqPbz7Dy-36" value="Model" style="shape=umlFrame;whiteSpace=wrap;html=1;pointerEvents=0;" vertex="1" parent="1">
          <mxGeometry x="-320" y="1790" width="300" height="229" as="geometry" />
        </mxCell>
        <mxCell id="GlIA1xJzYTSHRqPbz7Dy-42" value="Control" style="shape=umlFrame;whiteSpace=wrap;html=1;pointerEvents=0;" vertex="1" parent="1">
          <mxGeometry x="-830" y="1470" width="800" height="270" as="geometry" />
        </mxCell>
        <mxCell id="GlIA1xJzYTSHRqPbz7Dy-43" value="" style="endArrow=diamondThin;endFill=0;endSize=24;html=1;rounded=0;exitX=1;exitY=0.5;exitDx=0;exitDy=0;edgeStyle=elbowEdgeStyle;" edge="1" parent="1" source="GlIA1xJzYTSHRqPbz7Dy-24" target="GlIA1xJzYTSHRqPbz7Dy-4">
          <mxGeometry width="160" relative="1" as="geometry">
            <mxPoint x="-540" y="1290" as="sourcePoint" />
            <mxPoint x="-380" y="1290" as="targetPoint" />
            <Array as="points">
              <mxPoint x="-340" y="1820" />
            </Array>
          </mxGeometry>
        </mxCell>
        <mxCell id="GlIA1xJzYTSHRqPbz7Dy-53" value="View" style="shape=umlFrame;whiteSpace=wrap;html=1;pointerEvents=0;" vertex="1" parent="1">
          <mxGeometry x="-823" y="1780" width="470" height="253.5" as="geometry" />
        </mxCell>
        <mxCell id="GlIA1xJzYTSHRqPbz7Dy-57" value="" style="endArrow=open;endFill=1;endSize=12;html=1;rounded=0;entryX=0.5;entryY=0;entryDx=0;entryDy=0;exitX=0.502;exitY=0.996;exitDx=0;exitDy=0;edgeStyle=elbowEdgeStyle;exitPerimeter=0;elbow=vertical;" edge="1" parent="1" source="GlIA1xJzYTSHRqPbz7Dy-16" target="GlIA1xJzYTSHRqPbz7Dy-9">
          <mxGeometry width="160" relative="1" as="geometry">
            <mxPoint x="-770" y="1901" as="sourcePoint" />
            <mxPoint x="-900" y="1880" as="targetPoint" />
          </mxGeometry>
        </mxCell>
        <mxCell id="GlIA1xJzYTSHRqPbz7Dy-73" value="&lt;div&gt;Association&lt;/div&gt;" style="edgeLabel;html=1;align=center;verticalAlign=middle;resizable=0;points=[];fillColor=none;" vertex="1" connectable="0" parent="GlIA1xJzYTSHRqPbz7Dy-57">
          <mxGeometry x="-0.4501" y="-4" relative="1" as="geometry">
            <mxPoint x="-30" y="-20" as="offset" />
          </mxGeometry>
        </mxCell>
        <mxCell id="GlIA1xJzYTSHRqPbz7Dy-65" value="" style="endArrow=diamondThin;endFill=0;endSize=24;html=1;rounded=0;edgeStyle=elbowEdgeStyle;entryX=1;entryY=0.5;entryDx=0;entryDy=0;exitX=0;exitY=0.5;exitDx=0;exitDy=0;" edge="1" parent="1" source="GlIA1xJzYTSHRqPbz7Dy-26" target="GlIA1xJzYTSHRqPbz7Dy-22">
          <mxGeometry width="160" relative="1" as="geometry">
            <mxPoint x="-303" y="1570" as="sourcePoint" />
            <mxPoint x="-193" y="1438" as="targetPoint" />
          </mxGeometry>
        </mxCell>
        <mxCell id="GlIA1xJzYTSHRqPbz7Dy-66" value="" style="endArrow=open;endFill=1;endSize=12;html=1;rounded=0;entryX=1;entryY=0.5;entryDx=0;entryDy=0;exitX=0;exitY=0.5;exitDx=0;exitDy=0;edgeStyle=elbowEdgeStyle;" edge="1" parent="1" source="GlIA1xJzYTSHRqPbz7Dy-22" target="GlIA1xJzYTSHRqPbz7Dy-14">
          <mxGeometry width="160" relative="1" as="geometry">
            <mxPoint x="-663" y="1722" as="sourcePoint" />
            <mxPoint x="-505" y="1830" as="targetPoint" />
          </mxGeometry>
        </mxCell>
        <mxCell id="GlIA1xJzYTSHRqPbz7Dy-68" value="" style="endArrow=open;endFill=1;endSize=12;html=1;rounded=0;exitX=0.495;exitY=1;exitDx=0;exitDy=0;edgeStyle=elbowEdgeStyle;exitPerimeter=0;elbow=vertical;entryX=0.5;entryY=0;entryDx=0;entryDy=0;" edge="1" parent="1" source="GlIA1xJzYTSHRqPbz7Dy-24" target="GlIA1xJzYTSHRqPbz7Dy-69">
          <mxGeometry width="160" relative="1" as="geometry">
            <mxPoint x="-655" y="1710" as="sourcePoint" />
            <mxPoint x="-275" y="1830" as="targetPoint" />
          </mxGeometry>
        </mxCell>
        <mxCell id="GlIA1xJzYTSHRqPbz7Dy-74" value="Association" style="edgeLabel;html=1;align=center;verticalAlign=middle;resizable=0;points=[];" vertex="1" connectable="0" parent="GlIA1xJzYTSHRqPbz7Dy-68">
          <mxGeometry x="-0.7709" y="2" relative="1" as="geometry">
            <mxPoint as="offset" />
          </mxGeometry>
        </mxCell>
        <mxCell id="GlIA1xJzYTSHRqPbz7Dy-69" value="Data_Page" style="swimlane;fontStyle=1;align=center;verticalAlign=top;childLayout=stackLayout;horizontal=1;startSize=26;horizontalStack=0;resizeParent=1;resizeParentMax=0;resizeLast=0;collapsible=1;marginBottom=0;whiteSpace=wrap;html=1;" vertex="1" parent="1">
          <mxGeometry x="-573" y="1820" width="210" height="190" as="geometry" />
        </mxCell>
        <mxCell id="GlIA1xJzYTSHRqPbz7Dy-70" value="- stockDetails : Stock" style="text;strokeColor=none;fillColor=none;align=left;verticalAlign=top;spacingLeft=4;spacingRight=4;overflow=hidden;rotatable=0;points=[[0,0.5],[1,0.5]];portConstraint=eastwest;whiteSpace=wrap;html=1;" vertex="1" parent="GlIA1xJzYTSHRqPbz7Dy-69">
          <mxGeometry y="26" width="210" height="84" as="geometry" />
        </mxCell>
        <mxCell id="GlIA1xJzYTSHRqPbz7Dy-71" value="" style="line;strokeWidth=1;fillColor=none;align=left;verticalAlign=middle;spacingTop=-1;spacingLeft=3;spacingRight=3;rotatable=0;labelPosition=right;points=[];portConstraint=eastwest;strokeColor=inherit;" vertex="1" parent="GlIA1xJzYTSHRqPbz7Dy-69">
          <mxGeometry y="110" width="210" height="8" as="geometry" />
        </mxCell>
        <mxCell id="GlIA1xJzYTSHRqPbz7Dy-72" value="&lt;div&gt;+ displayStockGraph()&lt;/div&gt;&lt;div&gt;+ displayStockStatistics()&lt;/div&gt;&lt;div&gt;+showError()&lt;br&gt;&lt;/div&gt;" style="text;strokeColor=none;fillColor=none;align=left;verticalAlign=top;spacingLeft=4;spacingRight=4;overflow=hidden;rotatable=0;points=[[0,0.5],[1,0.5]];portConstraint=eastwest;whiteSpace=wrap;html=1;" vertex="1" parent="GlIA1xJzYTSHRqPbz7Dy-69">
          <mxGeometry y="118" width="210" height="72" as="geometry" />
        </mxCell>
        <mxCell id="GlIA1xJzYTSHRqPbz7Dy-75" value="&lt;div&gt;Association&lt;/div&gt;" style="edgeLabel;html=1;align=center;verticalAlign=middle;resizable=0;points=[];fillColor=none;" vertex="1" connectable="0" parent="1">
          <mxGeometry x="-569.9979999999999" y="1600" as="geometry" />
        </mxCell>
        <mxCell id="GlIA1xJzYTSHRqPbz7Dy-77" value="Aggregation" style="edgeLabel;html=1;align=center;verticalAlign=middle;resizable=0;points=[];fillColor=none;" vertex="1" connectable="0" parent="1">
          <mxGeometry x="-297.99799999999993" y="1598" as="geometry" />
        </mxCell>
        <mxCell id="GlIA1xJzYTSHRqPbz7Dy-78" value="Aggregation" style="edgeLabel;html=1;align=center;verticalAlign=middle;resizable=0;points=[];fillColor=none;" vertex="1" connectable="0" parent="1">
          <mxGeometry x="-339.99799999999993" y="1760" as="geometry" />
        </mxCell>
      </root>
    </mxGraphModel>
  </diagram>
</mxfile>
